<svg id="Layer_1" data-name="Layer 1" xmlns="http://www.w3.org/2000/svg" viewBox="0 0 512 512"><defs><style>.cls-1{fill:#004852;}</style></defs><title>Embassy-Flag-Icon-RGB-512px-1</title><path class="cls-1" d="M448.25,426.3H319.78c-22.15,0-40.52-8.65-49.59-19.13-29.44-34-12.05-44.21-29.34-89.43-16.59-43.4-72.13-40-72.13-40H155.39V221.52h13.33c29.15-.12,65.65,17.64,76.39,48.88,6.57,19.12,5.79,40.78,9.24,53.85,3.32,12.55,24.91,47.6,65.43,45.87H448.25V290.48H319.78c-22.15,0-40.52-8.65-49.59-19.13-29.44-34-12.05-44.21-29.34-89.43-16.59-43.4-72.13-40-72.13-40H155.39V85.7h13.33c29.15-.12,65.65,17.64,76.39,48.88,6.57,19.12,5.79,40.78,9.24,53.85,3.32,12.55,24.91,47.6,65.43,45.87H448.25V154.66H319.78c-22.15,0-40.52-8.65-49.59-19.13-29.44-34-12.05-44.21-29.34-89.43-16.59-43.4-72.13-40-72.13-40L63.75,6V357.27l105,.07c29.15-.12,65.65,17.64,76.39,48.88,6.57,19.12,5.79,40.78,9.24,53.85,3.32,12.55,24.91,47.6,65.43,45.87H448.25Z"/></svg>