<svg id="Layer_1" data-name="Layer 1" xmlns="http://www.w3.org/2000/svg" viewBox="0 0 841.89 601"><defs><style>.cls-1{fill:#004852;}.cls-2{fill:#5adbbd;}</style></defs><title>EmbassyCard-Master-Logo-RGB-FINAL</title><rect class="cls-1" width="841.89" height="601"/><path class="cls-2" d="M344.48,261.49a1.57,1.57,0,0,1,1.57-1.58h33.2a1.58,1.58,0,0,1,1.58,1.58v4.65a1.58,1.58,0,0,1-1.58,1.58H353v16.93h22.16a1.64,1.64,0,0,1,1.58,1.58v4.64a1.58,1.58,0,0,1-1.58,1.58H353V310.3h26.22a1.57,1.57,0,0,1,1.58,1.57v4.57a1.58,1.58,0,0,1-1.58,1.58h-33.2a1.57,1.57,0,0,1-1.57-1.58Z"/><path class="cls-2" d="M398.42,260.33a1.69,1.69,0,0,1,1.5-1.25h1.32a1.68,1.68,0,0,1,1.41.92L420,302.41h.33L437.6,260a1.58,1.58,0,0,1,1.41-.92h1.33a1.68,1.68,0,0,1,1.49,1.25L452,316.11a1.41,1.41,0,0,1-1.49,1.91h-5.4a1.74,1.74,0,0,1-1.58-1.17l-6.14-37.1h-.25l-14.94,38.18a1.4,1.4,0,0,1-1.41.92h-1.49a1.48,1.48,0,0,1-1.41-.92l-15-38.18h-.33l-6,37.1A1.62,1.62,0,0,1,395.1,318h-5.4a1.49,1.49,0,0,1-1.57-1.91Z"/><path class="cls-2" d="M459.25,261.49a1.58,1.58,0,0,1,1.58-1.58h18.59c10,0,17.27,6.64,17.27,15.36,0,6.39-4.73,11-8.64,13.2,4.4,1.82,10.38,5.89,10.38,13.53,0,9.29-7.64,16-18.09,16H460.83a1.58,1.58,0,0,1-1.58-1.58Zm21,48.89a8.85,8.85,0,0,0,9-9.05c0-5.06-4.82-8.71-10.21-8.71H467.64v17.76Zm-1.33-25.23c5.32,0,8.55-3.9,8.55-8.88s-3.23-8.55-8.55-8.55h-11.2v17.43Z"/><path class="cls-2" d="M500.17,315.86,525.65,260a1.94,1.94,0,0,1,1.41-.92h.83a2,2,0,0,1,1.41.92l25.32,55.86A1.47,1.47,0,0,1,553.2,318H548a1.93,1.93,0,0,1-1.9-1.25l-5.15-11.37H513.78c-1.66,3.82-3.41,7.55-5.07,11.37a2.09,2.09,0,0,1-1.9,1.25h-5.23A1.46,1.46,0,0,1,500.17,315.86Zm37.6-17.6-10.21-22.74h-.42L517,298.26Z"/><path class="cls-2" d="M559.17,309.63c.75-1.08,1.41-2.32,2.16-3.4s1.91-1.41,2.82-.66c.5.41,6.89,5.72,13.28,5.72,5.73,0,9.38-3.48,9.38-7.72,0-5-4.32-8.13-12.53-11.53-8.47-3.57-15.11-8-15.11-17.6,0-6.47,5-15.36,18.18-15.36a28.18,28.18,0,0,1,15.36,4.9,2,2,0,0,1,.49,2.82L591.13,270a2,2,0,0,1-2.91.83c-.58-.33-6.39-4.15-11.2-4.15-7,0-9.38,4.4-9.38,7.47,0,4.73,3.65,7.63,10.54,10.46,9.63,3.9,17.84,8.46,17.84,18.59,0,8.63-7.71,15.69-18.5,15.69a26.92,26.92,0,0,1-17.85-6.56C558.92,311.62,558.34,311,559.17,309.63Z"/><path class="cls-2" d="M601.25,309.63c.75-1.08,1.41-2.32,2.16-3.4a1.87,1.87,0,0,1,2.82-.66c.5.41,6.89,5.72,13.28,5.72,5.73,0,9.38-3.48,9.38-7.72,0-5-4.32-8.13-12.54-11.53-8.46-3.57-15.1-8-15.1-17.6,0-6.47,5-15.36,18.18-15.36a28.1,28.1,0,0,1,15.35,4.9,2,2,0,0,1,.5,2.82c-.67,1-1.41,2.16-2.08,3.16a2,2,0,0,1-2.9.83c-.58-.33-6.39-4.15-11.21-4.15-7,0-9.38,4.4-9.38,7.47,0,4.73,3.66,7.63,10.55,10.46,9.62,3.9,17.84,8.46,17.84,18.59,0,8.63-7.72,15.69-18.51,15.69a26.88,26.88,0,0,1-17.84-6.56C601,311.62,600.42,311,601.25,309.63Z"/><path class="cls-2" d="M659.26,290l-19.42-27.72a1.54,1.54,0,0,1,1.32-2.41h6.15a1.63,1.63,0,0,1,1.32.75l15,21.17,15-21.17a1.81,1.81,0,0,1,1.33-.75h6.23a1.54,1.54,0,0,1,1.32,2.41L667.89,290v26.48a1.64,1.64,0,0,1-1.57,1.58h-5.48a1.58,1.58,0,0,1-1.58-1.58Z"/><path class="cls-2" d="M370.21,341.62c8.38,0,14.44,2.82,20.08,7.72a1.54,1.54,0,0,1,.09,2.32l-3.66,3.74c-.58.74-1.32.74-2.07,0a22.45,22.45,0,0,0-14.36-5.56c-11.87,0-20.83,10-20.83,21.58s9,21.49,20.91,21.49c6.06,0,10.3-2.4,14.28-5.47a1.51,1.51,0,0,1,2-.09l3.82,3.74a1.57,1.57,0,0,1-.08,2.24,28.48,28.48,0,0,1-20.17,8.05,29.88,29.88,0,1,1,0-59.76Z"/><path class="cls-2" d="M394,398.39l25.48-55.86a1.94,1.94,0,0,1,1.41-.91h.83a1.94,1.94,0,0,1,1.42.91l25.31,55.86a1.46,1.46,0,0,1-1.41,2.16h-5.23a1.93,1.93,0,0,1-1.91-1.24l-5.14-11.38H407.63c-1.66,3.82-3.4,7.56-5.06,11.38a2.08,2.08,0,0,1-1.91,1.24h-5.23A1.47,1.47,0,0,1,394,398.39Zm37.6-17.59-10.21-22.75H421L410.87,380.8Z"/><path class="cls-2" d="M455.1,344a1.58,1.58,0,0,1,1.58-1.58h22.58a17.9,17.9,0,0,1,18.09,17.76c0,7.64-5.06,14-12.28,16.85l11.37,21.08a1.57,1.57,0,0,1-1.41,2.41h-6.48a1.52,1.52,0,0,1-1.32-.75l-11-22H463.65V399a1.63,1.63,0,0,1-1.57,1.58h-5.4A1.58,1.58,0,0,1,455.1,399Zm23.49,26.64a10.31,10.31,0,0,0,10.13-10.29,10.17,10.17,0,0,0-10.13-9.88H463.82v20.17Z"/><path class="cls-2" d="M504.48,344a1.56,1.56,0,0,1,1.5-1.58h19.09a29.05,29.05,0,1,1,0,58.1H506a1.57,1.57,0,0,1-1.5-1.58Zm19.43,48.63c12.2,0,21.08-9,21.08-21.24s-8.88-21.09-21.08-21.09H513v42.33Z"/><path class="cls-2" d="M308.13,368.74H256.66c-8.88,0-16.24-3.47-19.88-7.67C225,347.46,232,343.36,225,325.24c-6.65-17.39-28.91-16-28.91-16h-5.34V286.68h5.34c11.69,0,26.31,7.07,30.61,19.59,2.64,7.66,2.32,16.34,3.71,21.58,1.33,5,10,19.07,26.22,18.38h51.47V314.32H256.66c-8.88,0-16.24-3.47-19.88-7.67C225,293,232,288.94,225,270.82c-6.65-17.39-28.91-16-28.91-16h-5.34V232.26h5.34c11.69,0,26.31,7.07,30.61,19.59,2.64,7.66,2.32,16.34,3.71,21.58,1.33,5,10,19.07,26.22,18.37h51.47V259.89H256.66c-8.88,0-16.24-3.46-19.88-7.66C225,238.61,232,234.51,225,216.39c-6.65-17.38-28.91-16-28.91-16l-42.05,0V341.08l42.05,0c11.69-.05,26.31,7.06,30.61,19.58,2.64,7.66,2.32,16.34,3.71,21.58,1.33,5,10,19.07,26.22,18.38h51.47Z"/></svg>